<?xml version="1.0" encoding="UTF-8"?>
<svg xmlns="http://www.w3.org/2000/svg" xmlns:xlink="http://www.w3.org/1999/xlink" width="382px" height="333px" viewBox="0 0 382 333" version="1.1">
<g id="surface1">
<path style=" stroke:none;fill-rule:nonzero;fill:rgb(94.901961%,94.901961%,94.901961%);fill-opacity:1;" d="M 344.214844 173.261719 C 344.261719 214.453125 328.359375 254.066406 299.847656 283.761719 C 298.128906 285.5625 296.363281 287.328125 294.550781 289.039062 C 291.792969 291.671875 288.9375 294.199219 285.992188 296.621094 C 258.4375 319.355469 224.035156 332.128906 188.339844 332.882812 C 187.152344 332.910156 185.960938 332.921875 184.757812 332.921875 C 156.292969 332.921875 120.488281 317.699219 87.992188 296.621094 C 85.304688 294.878906 82.640625 293.09375 80.003906 291.269531 C 78.765625 290.425781 77.535156 289.566406 76.3125 288.699219 C 63.785156 279.835938 51.886719 270.105469 40.71875 259.578125 C 33.402344 252.707031 26.542969 245.359375 20.183594 237.59375 C -4.78125 206.757812 -10.292969 178.972656 25.304688 173.261719 C 29.519531 172.585938 33.609375 171.867188 37.578125 171.09375 C 43.320312 169.992188 48.820312 168.796875 54.070312 167.519531 C 61.144531 165.792969 67.785156 163.925781 74.003906 161.917969 C 76.097656 161.242188 78.140625 160.550781 80.136719 159.851562 C 109.640625 149.476562 129.382812 135.945312 142.828125 121.261719 C 145.105469 118.777344 147.214844 116.265625 149.132812 113.71875 C 152.078125 109.84375 154.75 105.773438 157.136719 101.53125 C 160.429688 95.636719 163.191406 89.464844 165.398438 83.085938 L 165.523438 82.734375 C 176.214844 51.84375 172.960938 23.191406 184.757812 13.597656 C 235.195312 -27.402344 297.992188 30.984375 327.460938 99.839844 C 328.949219 103.304688 330.34375 106.796875 331.65625 110.304688 C 332.246094 111.875 332.808594 113.449219 333.355469 115.023438 C 334.792969 119.125 336.097656 123.234375 337.261719 127.359375 C 337.710938 128.9375 338.140625 130.507812 338.546875 132.078125 C 338.984375 133.769531 339.402344 135.460938 339.785156 137.152344 C 342.652344 149.523438 344.214844 161.71875 344.214844 173.261719 Z M 344.214844 173.261719 "/>
<path style=" stroke:none;fill-rule:nonzero;fill:rgb(18.431373%,18.039216%,25.490196%);fill-opacity:1;" d="M 188.339844 332.882812 C 187.152344 332.910156 185.960938 332.921875 184.757812 332.921875 C 156.292969 332.921875 120.488281 317.699219 87.992188 296.621094 C 85.304688 294.878906 82.640625 293.09375 80.003906 291.269531 L 82.316406 277.15625 L 152.425781 267.835938 L 187.609375 294.78125 Z M 188.339844 332.882812 "/>
<path style=" stroke:none;fill-rule:nonzero;fill:rgb(100%,100%,100%);fill-opacity:1;" d="M 191.71875 80.910156 L 181.726562 80.910156 C 181.082031 80.914062 180.5625 81.4375 180.5625 82.082031 L 180.5625 92.089844 C 180.5625 92.398438 180.679688 92.695312 180.902344 92.910156 C 181.121094 93.128906 181.417969 93.253906 181.726562 93.253906 L 191.71875 93.253906 C 192.359375 93.253906 192.878906 92.734375 192.886719 92.089844 L 192.886719 82.082031 C 192.878906 81.4375 192.363281 80.914062 191.71875 80.910156 Z M 191.71875 80.910156 "/>
<path style=" stroke:none;fill-rule:nonzero;fill:rgb(90.196078%,90.196078%,90.196078%);fill-opacity:1;" d="M 191.71875 97.96875 L 181.726562 97.96875 C 181.082031 97.96875 180.5625 98.492188 180.5625 99.136719 L 180.5625 109.140625 C 180.5625 109.449219 180.679688 109.75 180.902344 109.96875 C 181.121094 110.1875 181.417969 110.304688 181.726562 110.304688 L 191.71875 110.304688 C 192.359375 110.304688 192.878906 109.789062 192.886719 109.140625 L 192.886719 99.136719 C 192.878906 98.492188 192.363281 97.96875 191.71875 97.96875 Z M 191.71875 97.96875 "/>
<path style=" stroke:none;fill-rule:nonzero;fill:rgb(90.196078%,90.196078%,90.196078%);fill-opacity:1;" d="M 191.71875 115.023438 L 181.726562 115.023438 C 181.082031 115.023438 180.5625 115.546875 180.5625 116.1875 L 180.5625 126.191406 C 180.5625 126.503906 180.679688 126.800781 180.898438 127.019531 C 181.121094 127.238281 181.417969 127.363281 181.726562 127.359375 L 191.71875 127.359375 C 192.363281 127.359375 192.886719 126.839844 192.886719 126.191406 L 192.886719 116.1875 C 192.878906 115.546875 192.363281 115.023438 191.71875 115.023438 Z M 191.71875 115.023438 "/>
<path style=" stroke:none;fill-rule:nonzero;fill:rgb(90.196078%,90.196078%,90.196078%);fill-opacity:1;" d="M 192.867188 133.039062 C 192.765625 132.484375 192.28125 132.082031 191.71875 132.078125 L 181.726562 132.078125 C 181.082031 132.078125 180.5625 132.597656 180.5625 133.246094 L 180.5625 143.25 C 180.5625 143.5625 180.679688 143.855469 180.898438 144.074219 C 181.121094 144.296875 181.417969 144.417969 181.726562 144.417969 L 191.71875 144.417969 C 192.363281 144.414062 192.886719 143.890625 192.886719 143.25 L 192.886719 133.246094 C 192.886719 133.175781 192.878906 133.109375 192.867188 133.039062 Z M 192.867188 133.039062 "/>
<path style=" stroke:none;fill-rule:nonzero;fill:rgb(90.196078%,90.196078%,90.196078%);fill-opacity:1;" d="M 192.171875 149.222656 C 192.027344 149.160156 191.871094 149.132812 191.71875 149.132812 L 181.726562 149.132812 C 181.417969 149.132812 181.121094 149.25 180.898438 149.46875 C 180.679688 149.691406 180.5625 149.988281 180.5625 150.296875 L 180.5625 160.300781 C 180.5625 160.613281 180.679688 160.910156 180.898438 161.132812 C 181.121094 161.347656 181.417969 161.472656 181.726562 161.472656 L 191.71875 161.472656 C 192.363281 161.472656 192.886719 160.945312 192.886719 160.300781 L 192.886719 150.296875 C 192.886719 149.828125 192.601562 149.40625 192.171875 149.222656 Z M 192.171875 149.222656 "/>
<path style=" stroke:none;fill-rule:nonzero;fill:rgb(90.196078%,90.196078%,90.196078%);fill-opacity:1;" d="M 212.703125 80.910156 L 202.710938 80.910156 C 202.066406 80.914062 201.546875 81.4375 201.546875 82.082031 L 201.546875 92.089844 C 201.546875 92.398438 201.667969 92.695312 201.886719 92.910156 C 202.109375 93.128906 202.40625 93.253906 202.710938 93.253906 L 212.703125 93.253906 C 213.347656 93.253906 213.871094 92.734375 213.871094 92.089844 L 213.871094 82.082031 C 213.871094 81.4375 213.347656 80.914062 212.703125 80.910156 Z M 212.703125 80.910156 "/>
<path style=" stroke:none;fill-rule:nonzero;fill:rgb(42.352941%,38.823529%,100%);fill-opacity:1;" d="M 212.703125 97.96875 L 202.710938 97.96875 C 202.066406 97.96875 201.546875 98.492188 201.546875 99.136719 L 201.546875 109.140625 C 201.546875 109.449219 201.667969 109.75 201.886719 109.96875 C 202.109375 110.1875 202.40625 110.304688 202.710938 110.304688 L 212.703125 110.304688 C 213.347656 110.304688 213.871094 109.789062 213.871094 109.140625 L 213.871094 99.136719 C 213.871094 98.492188 213.347656 97.96875 212.703125 97.96875 Z M 212.703125 97.96875 "/>
<path style=" stroke:none;fill-rule:nonzero;fill:rgb(42.352941%,38.823529%,100%);fill-opacity:1;" d="M 212.703125 115.023438 L 202.710938 115.023438 C 202.066406 115.023438 201.546875 115.546875 201.546875 116.1875 L 201.546875 126.191406 C 201.546875 126.503906 201.667969 126.800781 201.886719 127.019531 C 202.105469 127.238281 202.40625 127.363281 202.710938 127.359375 L 212.703125 127.359375 C 213.347656 127.359375 213.871094 126.839844 213.871094 126.191406 L 213.871094 116.1875 C 213.871094 115.546875 213.347656 115.023438 212.703125 115.023438 Z M 212.703125 115.023438 "/>
<path style=" stroke:none;fill-rule:nonzero;fill:rgb(42.352941%,38.823529%,100%);fill-opacity:1;" d="M 212.703125 132.078125 L 202.710938 132.078125 C 202.210938 132.078125 201.765625 132.398438 201.609375 132.875 C 201.566406 132.996094 201.546875 133.117188 201.546875 133.246094 L 201.546875 143.25 C 201.546875 143.5625 201.667969 143.855469 201.886719 144.074219 C 202.105469 144.296875 202.40625 144.417969 202.710938 144.417969 L 212.703125 144.417969 C 213.347656 144.414062 213.871094 143.890625 213.871094 143.25 L 213.871094 133.246094 C 213.871094 132.597656 213.347656 132.078125 212.703125 132.078125 Z M 212.703125 132.078125 "/>
<path style=" stroke:none;fill-rule:nonzero;fill:rgb(90.196078%,90.196078%,90.196078%);fill-opacity:1;" d="M 212.703125 149.132812 L 202.710938 149.132812 C 202.40625 149.132812 202.105469 149.25 201.886719 149.46875 C 201.667969 149.691406 201.546875 149.988281 201.546875 150.296875 L 201.546875 160.300781 C 201.546875 160.613281 201.667969 160.910156 201.886719 161.128906 C 202.105469 161.347656 202.40625 161.472656 202.710938 161.472656 L 212.703125 161.472656 C 213.347656 161.472656 213.871094 160.945312 213.871094 160.300781 L 213.871094 150.296875 C 213.871094 149.652344 213.347656 149.132812 212.703125 149.132812 Z M 212.703125 149.132812 "/>
<path style=" stroke:none;fill-rule:nonzero;fill:rgb(42.352941%,38.823529%,100%);fill-opacity:1;" d="M 233.6875 80.910156 L 223.703125 80.910156 C 223.054688 80.914062 222.535156 81.4375 222.535156 82.082031 L 222.535156 92.089844 C 222.535156 92.398438 222.65625 92.695312 222.871094 92.910156 C 223.09375 93.128906 223.390625 93.253906 223.703125 93.253906 L 233.6875 93.253906 C 234.332031 93.253906 234.855469 92.734375 234.859375 92.089844 L 234.859375 82.082031 C 234.855469 81.4375 234.332031 80.914062 233.6875 80.910156 Z M 233.6875 80.910156 "/>
<path style=" stroke:none;fill-rule:nonzero;fill:rgb(42.352941%,38.823529%,100%);fill-opacity:1;" d="M 233.6875 97.96875 L 223.703125 97.96875 C 223.054688 97.96875 222.535156 98.492188 222.535156 99.136719 L 222.535156 109.140625 C 222.535156 109.449219 222.65625 109.75 222.871094 109.96875 C 223.09375 110.1875 223.390625 110.304688 223.703125 110.304688 L 233.6875 110.304688 C 234.332031 110.304688 234.855469 109.789062 234.859375 109.140625 L 234.859375 99.136719 C 234.855469 98.492188 234.332031 97.96875 233.6875 97.96875 Z M 233.6875 97.96875 "/>
<path style=" stroke:none;fill-rule:nonzero;fill:rgb(90.196078%,90.196078%,90.196078%);fill-opacity:1;" d="M 233.6875 115.023438 L 223.703125 115.023438 C 223.054688 115.023438 222.535156 115.546875 222.535156 116.1875 L 222.535156 126.191406 C 222.53125 126.503906 222.652344 126.800781 222.871094 127.019531 C 223.09375 127.238281 223.390625 127.363281 223.703125 127.359375 L 233.6875 127.359375 C 234.332031 127.359375 234.859375 126.839844 234.859375 126.191406 L 234.859375 116.1875 C 234.855469 115.546875 234.332031 115.023438 233.6875 115.023438 Z M 233.6875 115.023438 "/>
<path style=" stroke:none;fill-rule:nonzero;fill:rgb(42.352941%,38.823529%,100%);fill-opacity:1;" d="M 233.6875 132.078125 L 223.703125 132.078125 C 223.054688 132.078125 222.535156 132.597656 222.535156 133.246094 L 222.535156 143.25 C 222.53125 143.5625 222.652344 143.855469 222.871094 144.074219 C 223.09375 144.296875 223.390625 144.417969 223.703125 144.417969 L 233.6875 144.417969 C 234.332031 144.414062 234.859375 143.890625 234.859375 143.25 L 234.859375 133.246094 C 234.855469 132.597656 234.332031 132.078125 233.6875 132.078125 Z M 233.6875 132.078125 "/>
<path style=" stroke:none;fill-rule:nonzero;fill:rgb(42.352941%,38.823529%,100%);fill-opacity:1;" d="M 233.6875 149.132812 L 223.703125 149.132812 C 223.390625 149.132812 223.09375 149.25 222.871094 149.46875 C 222.652344 149.691406 222.53125 149.988281 222.535156 150.296875 L 222.535156 160.300781 C 222.53125 160.613281 222.652344 160.910156 222.871094 161.128906 C 223.09375 161.347656 223.390625 161.472656 223.703125 161.472656 L 233.6875 161.472656 C 234.332031 161.472656 234.859375 160.945312 234.859375 160.300781 L 234.859375 150.296875 C 234.859375 149.652344 234.332031 149.132812 233.6875 149.132812 Z M 233.6875 149.132812 "/>
<path style=" stroke:none;fill-rule:nonzero;fill:rgb(42.352941%,38.823529%,100%);fill-opacity:1;" d="M 254.675781 80.910156 L 244.6875 80.910156 C 244.039062 80.914062 243.519531 81.4375 243.519531 82.082031 L 243.519531 92.089844 C 243.519531 92.398438 243.644531 92.695312 243.859375 92.910156 C 244.078125 93.128906 244.378906 93.253906 244.6875 93.253906 L 254.675781 93.253906 C 255.316406 93.253906 255.839844 92.734375 255.84375 92.089844 L 255.84375 82.082031 C 255.839844 81.4375 255.320312 80.914062 254.675781 80.910156 Z M 254.675781 80.910156 "/>
<path style=" stroke:none;fill-rule:nonzero;fill:rgb(100%,100%,100%);fill-opacity:1;" d="M 254.675781 97.96875 L 244.6875 97.96875 C 244.039062 97.96875 243.519531 98.492188 243.519531 99.136719 L 243.519531 109.140625 C 243.519531 109.449219 243.644531 109.75 243.859375 109.96875 C 244.078125 110.1875 244.378906 110.304688 244.6875 110.304688 L 254.675781 110.304688 C 255.316406 110.304688 255.839844 109.789062 255.84375 109.140625 L 255.84375 99.136719 C 255.839844 98.492188 255.320312 97.96875 254.675781 97.96875 Z M 254.675781 97.96875 "/>
<path style=" stroke:none;fill-rule:nonzero;fill:rgb(100%,100%,100%);fill-opacity:1;" d="M 254.675781 115.023438 L 244.6875 115.023438 C 244.039062 115.023438 243.519531 115.546875 243.519531 116.1875 L 243.519531 126.191406 C 243.519531 126.503906 243.644531 126.800781 243.855469 127.019531 C 244.078125 127.238281 244.378906 127.363281 244.6875 127.359375 L 254.675781 127.359375 C 255.320312 127.359375 255.84375 126.839844 255.84375 126.191406 L 255.84375 116.1875 C 255.839844 115.546875 255.320312 115.023438 254.675781 115.023438 Z M 254.675781 115.023438 "/>
<path style=" stroke:none;fill-rule:nonzero;fill:rgb(90.196078%,90.196078%,90.196078%);fill-opacity:1;" d="M 254.675781 132.078125 L 244.6875 132.078125 C 244.039062 132.078125 243.519531 132.597656 243.519531 133.246094 L 243.519531 143.25 C 243.519531 143.5625 243.644531 143.855469 243.855469 144.074219 C 244.078125 144.296875 244.378906 144.417969 244.6875 144.417969 L 254.675781 144.417969 C 255.320312 144.414062 255.84375 143.890625 255.84375 143.25 L 255.84375 133.246094 C 255.839844 132.597656 255.320312 132.078125 254.675781 132.078125 Z M 254.675781 132.078125 "/>
<path style=" stroke:none;fill-rule:nonzero;fill:rgb(42.352941%,38.823529%,100%);fill-opacity:1;" d="M 254.675781 149.132812 L 244.6875 149.132812 C 244.378906 149.132812 244.078125 149.25 243.855469 149.46875 C 243.644531 149.691406 243.519531 149.988281 243.519531 150.296875 L 243.519531 160.300781 C 243.519531 160.613281 243.644531 160.910156 243.855469 161.128906 C 244.078125 161.347656 244.378906 161.472656 244.6875 161.472656 L 254.675781 161.472656 C 255.320312 161.472656 255.84375 160.945312 255.84375 160.300781 L 255.84375 150.296875 C 255.84375 149.652344 255.320312 149.132812 254.675781 149.132812 Z M 254.675781 149.132812 "/>
<path style=" stroke:none;fill-rule:nonzero;fill:rgb(100%,100%,100%);fill-opacity:1;" d="M 275.660156 80.910156 L 265.667969 80.910156 C 265.023438 80.914062 264.503906 81.4375 264.503906 82.082031 L 264.503906 92.089844 C 264.503906 92.730469 265.023438 93.253906 265.667969 93.253906 L 275.660156 93.253906 C 276.304688 93.253906 276.828125 92.734375 276.828125 92.089844 L 276.828125 82.082031 C 276.828125 81.4375 276.304688 80.914062 275.660156 80.910156 Z M 275.660156 80.910156 "/>
<path style=" stroke:none;fill-rule:nonzero;fill:rgb(100%,100%,100%);fill-opacity:1;" d="M 275.660156 97.96875 L 265.667969 97.96875 C 265.023438 97.96875 264.503906 98.492188 264.503906 99.136719 L 264.503906 109.140625 C 264.503906 109.789062 265.023438 110.304688 265.667969 110.304688 L 275.660156 110.304688 C 276.304688 110.304688 276.828125 109.789062 276.828125 109.140625 L 276.828125 99.136719 C 276.828125 98.492188 276.304688 97.96875 275.660156 97.96875 Z M 275.660156 97.96875 "/>
<path style=" stroke:none;fill-rule:nonzero;fill:rgb(100%,100%,100%);fill-opacity:1;" d="M 275.660156 115.023438 L 265.667969 115.023438 C 265.023438 115.023438 264.503906 115.546875 264.503906 116.1875 L 264.503906 126.191406 C 264.503906 126.5 264.628906 126.800781 264.84375 127.019531 C 265.058594 127.238281 265.359375 127.359375 265.667969 127.359375 L 275.660156 127.359375 C 276.304688 127.359375 276.828125 126.839844 276.828125 126.191406 L 276.828125 116.1875 C 276.828125 115.546875 276.304688 115.023438 275.660156 115.023438 Z M 275.660156 115.023438 "/>
<path style=" stroke:none;fill-rule:nonzero;fill:rgb(42.352941%,38.823529%,100%);fill-opacity:1;" d="M 275.660156 132.078125 L 265.667969 132.078125 C 265.023438 132.082031 264.503906 132.601562 264.503906 133.246094 L 264.503906 143.25 C 264.503906 143.5625 264.628906 143.851562 264.84375 144.074219 C 265.058594 144.292969 265.359375 144.414062 265.667969 144.417969 L 275.660156 144.417969 C 276.304688 144.414062 276.828125 143.890625 276.828125 143.25 L 276.828125 133.246094 C 276.828125 132.597656 276.304688 132.078125 275.660156 132.078125 Z M 275.660156 132.078125 "/>
<path style=" stroke:none;fill-rule:nonzero;fill:rgb(90.196078%,90.196078%,90.196078%);fill-opacity:1;" d="M 275.660156 149.132812 L 265.667969 149.132812 C 265.359375 149.132812 265.058594 149.25 264.84375 149.472656 C 264.628906 149.691406 264.503906 149.988281 264.503906 150.296875 L 264.503906 160.300781 C 264.503906 160.613281 264.628906 160.90625 264.84375 161.128906 C 265.058594 161.34375 265.359375 161.472656 265.667969 161.472656 L 275.660156 161.472656 C 276.304688 161.472656 276.828125 160.945312 276.828125 160.300781 L 276.828125 150.296875 C 276.828125 149.652344 276.304688 149.132812 275.660156 149.132812 Z M 275.660156 149.132812 "/>
<path style=" stroke:none;fill-rule:nonzero;fill:rgb(100%,100%,100%);fill-opacity:1;" d="M 296.644531 80.910156 L 286.652344 80.910156 C 286.007812 80.914062 285.488281 81.4375 285.492188 82.082031 L 285.492188 92.089844 C 285.492188 92.730469 286.007812 93.253906 286.652344 93.253906 L 296.644531 93.253906 C 297.289062 93.253906 297.8125 92.734375 297.816406 92.089844 L 297.816406 82.082031 C 297.8125 81.4375 297.289062 80.914062 296.644531 80.910156 Z M 296.644531 80.910156 "/>
<path style=" stroke:none;fill-rule:nonzero;fill:rgb(100%,100%,100%);fill-opacity:1;" d="M 296.644531 97.96875 L 286.652344 97.96875 C 286.007812 97.96875 285.488281 98.492188 285.492188 99.136719 L 285.492188 109.140625 C 285.492188 109.789062 286.007812 110.304688 286.652344 110.304688 L 296.644531 110.304688 C 297.289062 110.304688 297.8125 109.789062 297.816406 109.140625 L 297.816406 99.136719 C 297.8125 98.492188 297.289062 97.96875 296.644531 97.96875 Z M 296.644531 97.96875 "/>
<path style=" stroke:none;fill-rule:nonzero;fill:rgb(42.352941%,38.823529%,100%);fill-opacity:1;" d="M 296.644531 115.023438 L 286.652344 115.023438 C 286.007812 115.023438 285.488281 115.546875 285.492188 116.1875 L 285.492188 126.191406 C 285.488281 126.5 285.613281 126.800781 285.828125 127.019531 C 286.046875 127.238281 286.34375 127.359375 286.652344 127.359375 L 296.644531 127.359375 C 297.289062 127.359375 297.8125 126.839844 297.816406 126.191406 L 297.816406 116.1875 C 297.8125 115.546875 297.289062 115.023438 296.644531 115.023438 Z M 296.644531 115.023438 "/>
<path style=" stroke:none;fill-rule:nonzero;fill:rgb(90.196078%,90.196078%,90.196078%);fill-opacity:1;" d="M 296.644531 132.078125 L 286.652344 132.078125 C 286.007812 132.082031 285.488281 132.601562 285.492188 133.246094 L 285.492188 143.25 C 285.488281 143.5625 285.613281 143.851562 285.828125 144.074219 C 286.046875 144.292969 286.34375 144.414062 286.652344 144.417969 L 296.644531 144.417969 C 297.289062 144.414062 297.8125 143.890625 297.816406 143.25 L 297.816406 133.246094 C 297.8125 132.597656 297.289062 132.078125 296.644531 132.078125 Z M 296.644531 132.078125 "/>
<path style=" stroke:none;fill-rule:nonzero;fill:rgb(100%,100%,100%);fill-opacity:1;" d="M 296.644531 149.132812 L 286.652344 149.132812 C 286.34375 149.132812 286.046875 149.25 285.828125 149.472656 C 285.613281 149.691406 285.488281 149.988281 285.492188 150.296875 L 285.492188 160.300781 C 285.488281 160.613281 285.613281 160.90625 285.828125 161.128906 C 286.046875 161.34375 286.34375 161.472656 286.652344 161.472656 L 296.644531 161.472656 C 297.289062 161.472656 297.8125 160.945312 297.816406 160.300781 L 297.816406 150.296875 C 297.8125 149.652344 297.289062 149.132812 296.644531 149.132812 Z M 296.644531 149.132812 "/>
<path style=" stroke:none;fill-rule:nonzero;fill:rgb(42.352941%,38.823529%,100%);fill-opacity:1;" d="M 317.632812 80.910156 L 307.640625 80.910156 C 306.992188 80.914062 306.476562 81.4375 306.476562 82.082031 L 306.476562 92.089844 C 306.476562 92.730469 306.992188 93.253906 307.640625 93.253906 L 317.632812 93.253906 C 318.273438 93.253906 318.796875 92.734375 318.800781 92.089844 L 318.800781 82.082031 C 318.796875 81.4375 318.273438 80.914062 317.632812 80.910156 Z M 317.632812 80.910156 "/>
<path style=" stroke:none;fill-rule:nonzero;fill:rgb(42.352941%,38.823529%,100%);fill-opacity:1;" d="M 317.632812 97.96875 L 307.640625 97.96875 C 306.992188 97.96875 306.476562 98.492188 306.476562 99.136719 L 306.476562 109.140625 C 306.476562 109.789062 306.992188 110.304688 307.640625 110.304688 L 317.632812 110.304688 C 318.273438 110.304688 318.796875 109.789062 318.800781 109.140625 L 318.800781 99.136719 C 318.796875 98.492188 318.273438 97.96875 317.632812 97.96875 Z M 317.632812 97.96875 "/>
<path style=" stroke:none;fill-rule:nonzero;fill:rgb(90.196078%,90.196078%,90.196078%);fill-opacity:1;" d="M 317.632812 115.023438 L 307.640625 115.023438 C 306.992188 115.023438 306.476562 115.546875 306.476562 116.1875 L 306.476562 126.191406 C 306.476562 126.5 306.597656 126.800781 306.820312 127.019531 C 307.03125 127.238281 307.332031 127.359375 307.640625 127.359375 L 317.632812 127.359375 C 318.277344 127.359375 318.800781 126.839844 318.800781 126.191406 L 318.800781 116.1875 C 318.796875 115.546875 318.273438 115.023438 317.632812 115.023438 Z M 317.632812 115.023438 "/>
<path style=" stroke:none;fill-rule:nonzero;fill:rgb(100%,100%,100%);fill-opacity:1;" d="M 317.632812 132.078125 L 307.640625 132.078125 C 306.992188 132.082031 306.476562 132.601562 306.476562 133.246094 L 306.476562 143.25 C 306.476562 143.5625 306.597656 143.851562 306.820312 144.074219 C 307.03125 144.292969 307.332031 144.414062 307.640625 144.417969 L 317.632812 144.417969 C 318.277344 144.414062 318.800781 143.890625 318.800781 143.25 L 318.800781 133.246094 C 318.796875 132.597656 318.273438 132.078125 317.632812 132.078125 Z M 317.632812 132.078125 "/>
<path style=" stroke:none;fill-rule:nonzero;fill:rgb(42.352941%,38.823529%,100%);fill-opacity:1;" d="M 317.632812 149.132812 L 307.640625 149.132812 C 307.332031 149.132812 307.03125 149.25 306.820312 149.472656 C 306.597656 149.691406 306.476562 149.988281 306.476562 150.296875 L 306.476562 160.300781 C 306.476562 160.613281 306.597656 160.90625 306.820312 161.128906 C 307.03125 161.34375 307.332031 161.472656 307.640625 161.472656 L 317.632812 161.472656 C 318.277344 161.472656 318.800781 160.945312 318.800781 160.300781 L 318.800781 150.296875 C 318.800781 149.652344 318.277344 149.132812 317.632812 149.132812 Z M 317.632812 149.132812 "/>
<path style=" stroke:none;fill-rule:nonzero;fill:rgb(42.352941%,38.823529%,100%);fill-opacity:1;" d="M 338.621094 80.910156 L 328.625 80.910156 C 327.984375 80.914062 327.460938 81.4375 327.460938 82.082031 L 327.460938 92.089844 C 327.460938 92.730469 327.984375 93.253906 328.625 93.253906 L 338.621094 93.253906 C 339.265625 93.253906 339.785156 92.734375 339.785156 92.089844 L 339.785156 82.082031 C 339.785156 81.4375 339.265625 80.914062 338.621094 80.910156 Z M 338.621094 80.910156 "/>
<path style=" stroke:none;fill-rule:nonzero;fill:rgb(42.352941%,38.823529%,100%);fill-opacity:1;" d="M 338.621094 97.96875 L 328.625 97.96875 C 327.984375 97.96875 327.460938 98.492188 327.460938 99.136719 L 327.460938 109.140625 C 327.460938 109.789062 327.984375 110.304688 328.625 110.304688 L 338.621094 110.304688 C 339.265625 110.304688 339.785156 109.789062 339.785156 109.140625 L 339.785156 99.136719 C 339.785156 98.492188 339.265625 97.96875 338.621094 97.96875 Z M 338.621094 97.96875 "/>
<path style=" stroke:none;fill-rule:nonzero;fill:rgb(90.196078%,90.196078%,90.196078%);fill-opacity:1;" d="M 338.621094 115.023438 L 328.625 115.023438 C 327.984375 115.023438 327.460938 115.546875 327.460938 116.1875 L 327.460938 126.191406 C 327.460938 126.5 327.585938 126.800781 327.804688 127.019531 C 328.019531 127.238281 328.316406 127.359375 328.625 127.359375 L 338.621094 127.359375 C 339.265625 127.359375 339.785156 126.839844 339.785156 126.191406 L 339.785156 116.1875 C 339.785156 115.546875 339.265625 115.023438 338.621094 115.023438 Z M 338.621094 115.023438 "/>
<path style=" stroke:none;fill-rule:nonzero;fill:rgb(42.352941%,38.823529%,100%);fill-opacity:1;" d="M 338.621094 132.078125 L 328.625 132.078125 C 327.984375 132.082031 327.460938 132.601562 327.460938 133.246094 L 327.460938 143.25 C 327.460938 143.5625 327.585938 143.851562 327.804688 144.074219 C 328.019531 144.292969 328.316406 144.414062 328.625 144.417969 L 338.621094 144.417969 C 339.265625 144.414062 339.785156 143.890625 339.785156 143.25 L 339.785156 133.246094 C 339.785156 132.597656 339.265625 132.078125 338.621094 132.078125 Z M 338.621094 132.078125 "/>
<path style=" stroke:none;fill-rule:nonzero;fill:rgb(42.352941%,38.823529%,100%);fill-opacity:1;" d="M 338.621094 149.132812 L 328.625 149.132812 C 328.316406 149.132812 328.019531 149.25 327.804688 149.472656 C 327.585938 149.691406 327.460938 149.988281 327.460938 150.296875 L 327.460938 160.300781 C 327.460938 160.613281 327.585938 160.90625 327.804688 161.128906 C 328.019531 161.34375 328.316406 161.472656 328.625 161.472656 L 338.621094 161.472656 C 339.265625 161.472656 339.785156 160.945312 339.785156 160.300781 L 339.785156 150.296875 C 339.785156 149.652344 339.265625 149.132812 338.621094 149.132812 Z M 338.621094 149.132812 "/>
<path style=" stroke:none;fill-rule:nonzero;fill:rgb(90.196078%,90.196078%,90.196078%);fill-opacity:1;" d="M 359.605469 80.910156 L 349.609375 80.910156 C 348.96875 80.914062 348.445312 81.4375 348.445312 82.082031 L 348.445312 92.089844 C 348.449219 92.730469 348.96875 93.253906 349.609375 93.253906 L 359.605469 93.253906 C 360.25 93.253906 360.769531 92.734375 360.769531 92.089844 L 360.769531 82.082031 C 360.769531 81.4375 360.25 80.914062 359.605469 80.910156 Z M 359.605469 80.910156 "/>
<path style=" stroke:none;fill-rule:nonzero;fill:rgb(42.352941%,38.823529%,100%);fill-opacity:1;" d="M 359.605469 97.96875 L 349.609375 97.96875 C 348.96875 97.96875 348.445312 98.492188 348.445312 99.136719 L 348.445312 109.140625 C 348.449219 109.789062 348.96875 110.304688 349.609375 110.304688 L 359.605469 110.304688 C 360.25 110.304688 360.769531 109.789062 360.769531 109.140625 L 360.769531 99.136719 C 360.769531 98.492188 360.25 97.96875 359.605469 97.96875 Z M 359.605469 97.96875 "/>
<path style=" stroke:none;fill-rule:nonzero;fill:rgb(42.352941%,38.823529%,100%);fill-opacity:1;" d="M 359.605469 115.023438 L 349.609375 115.023438 C 348.96875 115.023438 348.445312 115.546875 348.445312 116.1875 L 348.445312 126.191406 C 348.445312 126.5 348.570312 126.800781 348.789062 127.019531 C 349.007812 127.238281 349.300781 127.359375 349.609375 127.359375 L 359.605469 127.359375 C 360.25 127.359375 360.769531 126.839844 360.769531 126.191406 L 360.769531 116.1875 C 360.769531 115.546875 360.25 115.023438 359.605469 115.023438 Z M 359.605469 115.023438 "/>
<path style=" stroke:none;fill-rule:nonzero;fill:rgb(42.352941%,38.823529%,100%);fill-opacity:1;" d="M 359.605469 132.078125 L 349.609375 132.078125 C 348.96875 132.082031 348.445312 132.601562 348.445312 133.246094 L 348.445312 143.25 C 348.445312 143.5625 348.570312 143.851562 348.789062 144.074219 C 349.007812 144.292969 349.300781 144.414062 349.609375 144.417969 L 359.605469 144.417969 C 360.25 144.414062 360.769531 143.890625 360.769531 143.25 L 360.769531 133.246094 C 360.769531 132.597656 360.25 132.078125 359.605469 132.078125 Z M 359.605469 132.078125 "/>
<path style=" stroke:none;fill-rule:nonzero;fill:rgb(90.196078%,90.196078%,90.196078%);fill-opacity:1;" d="M 359.605469 149.132812 L 349.609375 149.132812 C 349.300781 149.132812 349.007812 149.25 348.789062 149.472656 C 348.570312 149.691406 348.445312 149.988281 348.445312 150.296875 L 348.445312 160.300781 C 348.445312 160.613281 348.570312 160.90625 348.789062 161.128906 C 349.007812 161.34375 349.300781 161.472656 349.609375 161.472656 L 359.605469 161.472656 C 360.25 161.472656 360.769531 160.945312 360.769531 160.300781 L 360.769531 150.296875 C 360.769531 149.652344 360.25 149.132812 359.605469 149.132812 Z M 359.605469 149.132812 "/>
<path style=" stroke:none;fill-rule:nonzero;fill:rgb(90.196078%,90.196078%,90.196078%);fill-opacity:1;" d="M 380.59375 80.910156 L 370.597656 80.910156 C 369.957031 80.914062 369.433594 81.4375 369.433594 82.082031 L 369.433594 92.089844 C 369.433594 92.730469 369.957031 93.253906 370.597656 93.253906 L 380.59375 93.253906 C 381.234375 93.253906 381.757812 92.734375 381.757812 92.089844 L 381.757812 82.082031 C 381.757812 81.4375 381.234375 80.914062 380.59375 80.910156 Z M 380.59375 80.910156 "/>
<path style=" stroke:none;fill-rule:nonzero;fill:rgb(90.196078%,90.196078%,90.196078%);fill-opacity:1;" d="M 380.59375 97.96875 L 370.597656 97.96875 C 369.957031 97.96875 369.433594 98.492188 369.433594 99.136719 L 369.433594 109.140625 C 369.433594 109.789062 369.957031 110.304688 370.597656 110.304688 L 380.59375 110.304688 C 381.234375 110.304688 381.757812 109.789062 381.757812 109.140625 L 381.757812 99.136719 C 381.757812 98.492188 381.234375 97.96875 380.59375 97.96875 Z M 380.59375 97.96875 "/>
<path style=" stroke:none;fill-rule:nonzero;fill:rgb(42.352941%,38.823529%,100%);fill-opacity:1;" d="M 380.59375 115.023438 L 370.597656 115.023438 C 369.957031 115.023438 369.433594 115.546875 369.433594 116.1875 L 369.433594 126.191406 C 369.433594 126.5 369.554688 126.800781 369.777344 127.019531 C 369.996094 127.238281 370.285156 127.359375 370.597656 127.359375 L 380.59375 127.359375 C 381.238281 127.359375 381.757812 126.839844 381.757812 126.191406 L 381.757812 116.1875 C 381.757812 115.546875 381.234375 115.023438 380.59375 115.023438 Z M 380.59375 115.023438 "/>
<path style=" stroke:none;fill-rule:nonzero;fill:rgb(90.196078%,90.196078%,90.196078%);fill-opacity:1;" d="M 380.59375 132.078125 L 370.597656 132.078125 C 369.957031 132.082031 369.433594 132.601562 369.433594 133.246094 L 369.433594 143.25 C 369.433594 143.5625 369.554688 143.851562 369.777344 144.074219 C 369.996094 144.292969 370.285156 144.414062 370.597656 144.417969 L 380.59375 144.417969 C 381.238281 144.414062 381.757812 143.890625 381.757812 143.25 L 381.757812 133.246094 C 381.757812 132.597656 381.234375 132.078125 380.59375 132.078125 Z M 380.59375 132.078125 "/>
<path style=" stroke:none;fill-rule:nonzero;fill:rgb(90.196078%,90.196078%,90.196078%);fill-opacity:1;" d="M 380.59375 149.132812 L 370.597656 149.132812 C 370.285156 149.132812 369.996094 149.25 369.777344 149.472656 C 369.554688 149.691406 369.433594 149.988281 369.433594 150.296875 L 369.433594 160.300781 C 369.433594 160.613281 369.554688 160.90625 369.777344 161.128906 C 369.996094 161.34375 370.285156 161.472656 370.597656 161.472656 L 380.59375 161.472656 C 381.238281 161.472656 381.757812 160.945312 381.757812 160.300781 L 381.757812 150.296875 C 381.757812 149.652344 381.238281 149.132812 380.59375 149.132812 Z M 380.59375 149.132812 "/>
<path style=" stroke:none;fill-rule:nonzero;fill:rgb(18.431373%,18.039216%,25.490196%);fill-opacity:1;" d="M 150.875 296.625 L 150.59375 296.625 L 150.835938 296.589844 Z M 150.875 296.625 "/>
<path style=" stroke:none;fill-rule:nonzero;fill:rgb(100%,71.372549%,71.372549%);fill-opacity:1;" d="M 157.625 79.421875 C 157.625 96.382812 143.898438 110.125 126.960938 110.125 C 110.023438 110.125 96.296875 96.382812 96.296875 79.421875 C 96.296875 62.464844 110.023438 48.71875 126.960938 48.71875 C 143.898438 48.71875 157.625 62.464844 157.625 79.421875 Z M 157.625 79.421875 "/>
<path style=" stroke:none;fill-rule:nonzero;fill:rgb(18.431373%,18.039216%,25.490196%);fill-opacity:1;" d="M 153.8125 56.914062 C 153.8125 56.914062 161.832031 41.558594 144.191406 40.160156 C 144.191406 40.160156 129.148438 26.503906 113.820312 37.667969 C 113.820312 37.667969 105.453125 37.667969 100.882812 47.144531 C 100.882812 47.144531 94.304688 44.644531 92.855469 51.328125 C 92.855469 51.328125 88.046875 65.28125 92.855469 77.847656 C 97.671875 90.40625 99.269531 91.800781 99.269531 91.800781 C 99.269531 91.800781 91.363281 65.46875 110.609375 64.070312 C 129.863281 62.675781 151.398438 50.632812 153.007812 65.980469 C 154.609375 81.335938 157.023438 85.117188 157.023438 85.117188 C 157.023438 85.117188 172.257812 63.191406 153.8125 56.914062 Z M 153.8125 56.914062 "/>
<path style=" stroke:none;fill-rule:nonzero;fill:rgb(79.215686%,79.215686%,79.215686%);fill-opacity:1;" d="M 206.28125 155.09375 L 206.183594 155.609375 L 205.078125 161.472656 L 197.410156 202.007812 L 196.960938 204.390625 L 196.007812 209.4375 L 194.707031 216.324219 L 191.820312 231.582031 L 190.992188 235.953125 L 190.683594 237.59375 L 190.578125 238.167969 L 189.722656 242.695312 L 189.460938 244.058594 L 187.367188 259.578125 L 185.542969 273.101562 L 191.652344 279.222656 L 188.007812 282.867188 L 185.617188 296.585938 L 185.621094 296.621094 L 87.992188 296.621094 C 84.042969 294.0625 80.152344 291.421875 76.3125 288.699219 L 77.117188 282.675781 C 77.117188 282.675781 79.882812 271.921875 78.71875 270.636719 C 77.566406 269.351562 75.023438 267.058594 75.023438 267.058594 L 78.222656 259.578125 L 78.667969 258.539062 L 77.921875 243.066406 L 77.902344 242.695312 L 77.660156 237.59375 L 77.578125 235.953125 L 76.628906 216.324219 L 76.613281 216 L 76.324219 210.050781 L 76.054688 204.390625 L 75.9375 202.007812 L 74.785156 178.128906 L 74.003906 161.917969 L 73.320312 147.800781 L 76.066406 146.867188 L 105.394531 136.890625 L 117.542969 121.074219 L 142.828125 121.261719 L 155.207031 121.359375 L 175.859375 140.535156 L 180.5625 142.785156 L 180.59375 142.804688 L 183.96875 144.417969 L 192.511719 148.503906 L 201.546875 152.824219 L 206.183594 155.042969 Z M 206.28125 155.09375 "/>
<path style=" stroke:none;fill-rule:nonzero;fill:rgb(100%,71.372549%,71.372549%);fill-opacity:1;" d="M 120.808594 250.558594 C 117.058594 252.011719 112.859375 251.730469 109.335938 249.785156 C 105.8125 247.835938 103.335938 244.429688 102.5625 240.480469 L 54.734375 233.683594 L 71.363281 214.855469 L 114.230469 224.191406 C 121.097656 223.316406 127.535156 227.722656 129.214844 234.449219 C 130.894531 241.175781 127.285156 248.09375 120.808594 250.558594 Z M 120.808594 250.558594 "/>
<path style=" stroke:none;fill-rule:nonzero;fill:rgb(79.215686%,79.215686%,79.215686%);fill-opacity:1;" d="M 99.488281 216.324219 C 98.601562 215.203125 97.351562 214.425781 95.949219 214.132812 L 76.324219 210.050781 L 74.308594 209.632812 C 71.941406 209.140625 69.894531 207.65625 68.6875 205.554688 C 68.066406 204.464844 67.691406 203.253906 67.585938 202.007812 C 67.492188 200.871094 67.628906 199.726562 67.988281 198.644531 L 74.785156 178.128906 L 79.195312 164.820312 C 79.734375 163.214844 80.046875 161.539062 80.136719 159.851562 C 80.378906 155.175781 78.9375 150.570312 76.066406 146.867188 C 70.882812 140.199219 61.945312 137.707031 54.070312 140.742188 C 53.957031 140.785156 53.84375 140.824219 53.726562 140.871094 C 48.148438 143.101562 43.941406 147.832031 42.367188 153.636719 L 37.578125 171.09375 L 27.683594 207.089844 C 25.683594 214.386719 26.960938 222.195312 31.1875 228.472656 C 35.410156 234.75 42.15625 238.867188 49.660156 239.75 L 77.921875 243.066406 L 91.003906 244.601562 C 94.136719 244.984375 97.039062 242.882812 97.660156 239.78125 C 97.679688 239.703125 97.699219 239.617188 97.707031 239.535156 L 98.023438 237.59375 L 100.683594 221.246094 L 100.714844 221.082031 C 100.992188 219.390625 100.546875 217.667969 99.488281 216.324219 Z M 99.488281 216.324219 "/>
<path style=" stroke:none;fill-rule:nonzero;fill:rgb(100%,71.372549%,71.372549%);fill-opacity:1;" d="M 151.269531 251.082031 C 155.191406 251.992188 159.3125 251.121094 162.523438 248.699219 C 165.738281 246.277344 167.714844 242.546875 167.921875 238.527344 L 214.308594 225.046875 L 195.199219 208.753906 L 154.074219 224.050781 C 147.152344 224.152344 141.398438 229.425781 140.683594 236.324219 C 139.96875 243.21875 144.519531 249.5625 151.269531 251.082031 Z M 151.269531 251.082031 "/>
<path style=" stroke:none;fill-rule:nonzero;fill:rgb(79.215686%,79.215686%,79.215686%);fill-opacity:1;" d="M 237.34375 194.894531 L 215.28125 144.054688 C 213.472656 139.875 210.253906 136.480469 206.183594 134.457031 C 204.925781 133.835938 203.605469 133.355469 202.242188 133.019531 C 202.03125 132.964844 201.820312 132.917969 201.609375 132.875 C 198.722656 132.242188 195.726562 132.300781 192.867188 133.039062 C 187.574219 134.398438 183.113281 137.949219 180.59375 142.804688 C 180.582031 142.824219 180.570312 142.84375 180.5625 142.863281 C 177.738281 148.332031 177.675781 154.808594 180.394531 160.324219 L 180.667969 160.875 L 196.261719 192.230469 C 197.335938 194.394531 197.4375 196.921875 196.535156 199.167969 C 195.636719 201.417969 193.820312 203.175781 191.546875 204 L 190.449219 204.390625 L 170.757812 211.515625 C 167.6875 212.613281 166.03125 215.945312 167.019531 219.0625 L 167.070312 219.21875 L 172.589844 236.90625 C 172.617188 236.984375 172.640625 237.066406 172.675781 237.148438 C 172.722656 237.296875 172.78125 237.449219 172.855469 237.59375 C 174.066406 240.316406 177.074219 241.75 179.949219 240.976562 L 190.578125 238.167969 L 192.742188 237.59375 L 220.191406 230.335938 C 227.496094 228.402344 233.597656 223.375 236.898438 216.5625 C 240.191406 209.75 240.355469 201.839844 237.34375 194.894531 Z M 237.34375 194.894531 "/>
<path style=" stroke:none;fill-rule:nonzero;fill:rgb(24.705882%,23.921569%,33.72549%);fill-opacity:1;" d="M 20.183594 237.59375 C 26.542969 245.359375 33.402344 252.707031 40.71875 259.578125 L 243.566406 259.578125 C 247.636719 259.582031 250.929688 262.886719 250.929688 266.960938 L 251.222656 318.429688 C 263.699219 312.6875 275.386719 305.363281 285.992188 296.621094 C 288.9375 294.199219 291.789062 291.675781 294.550781 289.039062 C 296.359375 287.324219 298.125 285.5625 299.847656 283.761719 C 312.757812 270.300781 323.210938 254.671875 330.734375 237.59375 Z M 20.183594 237.59375 "/>
<path style=" stroke:none;fill-rule:nonzero;fill:rgb(100%,100%,100%);fill-opacity:1;" d="M 299.847656 283.761719 C 298.128906 285.5625 296.363281 287.328125 294.550781 289.039062 L 251.375 289.039062 L 251.375 283.761719 Z M 299.847656 283.761719 "/>
<path style=" stroke:none;fill-rule:nonzero;fill:rgb(24.705882%,23.921569%,33.72549%);fill-opacity:1;" d="M 205.875 115.023438 C 205.445312 114.21875 204.601562 113.71875 203.691406 113.71875 L 56.554688 113.71875 C 55.183594 113.722656 54.070312 114.835938 54.070312 116.210938 L 54.070312 204.390625 L 206.183594 204.390625 L 206.183594 116.210938 C 206.183594 115.796875 206.082031 115.386719 205.875 115.023438 Z M 205.875 115.023438 "/>
<path style=" stroke:none;fill-rule:nonzero;fill:rgb(24.705882%,23.921569%,33.72549%);fill-opacity:1;" d="M 53.9375 202.007812 L 53.9375 212.886719 C 53.9375 214.78125 55.472656 216.324219 57.367188 216.324219 L 113.511719 216.324219 L 113.511719 237.800781 L 112.765625 237.800781 C 112.519531 237.800781 112.320312 237.996094 112.320312 238.242188 L 112.320312 239.738281 C 112.320312 239.980469 112.519531 240.183594 112.765625 240.183594 L 147.621094 240.183594 C 147.863281 240.183594 148.066406 239.980469 148.066406 239.738281 L 148.066406 238.242188 C 148.066406 237.996094 147.863281 237.800781 147.621094 237.800781 L 146.871094 237.800781 L 146.871094 216.324219 L 203.015625 216.324219 C 204.910156 216.324219 206.449219 214.78125 206.449219 212.886719 L 206.449219 202.007812 Z M 53.9375 202.007812 "/>
<path style=" stroke:none;fill-rule:nonzero;fill:rgb(42.352941%,38.823529%,100%);fill-opacity:1;" d="M 142.402344 156.707031 C 142.402344 164.472656 136.109375 170.773438 128.351562 170.773438 C 120.585938 170.773438 114.300781 164.472656 114.300781 156.707031 C 114.300781 148.933594 120.585938 142.636719 128.351562 142.636719 C 136.109375 142.636719 142.402344 148.933594 142.402344 156.707031 Z M 142.402344 156.707031 "/>
<path style=" stroke:none;fill-rule:nonzero;fill:rgb(42.352941%,38.823529%,100%);fill-opacity:1;" d="M 164.148438 77.746094 L 161.902344 77.746094 C 161.902344 60.757812 145.117188 49.625 128.175781 49.613281 C 125.710938 49.609375 123.253906 49.847656 120.839844 50.332031 C 118.117188 50.875 115.296875 51.527344 112.519531 52.375 C 101.582031 55.734375 91.441406 62.222656 91.441406 77.746094 C 91.4375 80.761719 91.824219 83.761719 92.582031 86.675781 L 90.40625 87.242188 C 89.601562 84.144531 89.195312 80.949219 89.195312 77.746094 C 89.195312 64.183594 94.753906 54.867188 104.363281 49.308594 C 109.410156 46.390625 115.574219 44.507812 122.632812 43.59375 C 125.566406 43.199219 128.539062 43.109375 131.496094 43.324219 C 150.972656 44.722656 164.148438 59.675781 164.148438 77.746094 Z M 164.148438 77.746094 "/>
<path style=" stroke:none;fill-rule:nonzero;fill:rgb(42.352941%,38.823529%,100%);fill-opacity:1;" d="M 167.886719 78.988281 L 167 72.445312 C 166.785156 70.792969 165.988281 69.269531 164.757812 68.148438 C 163.160156 66.667969 160.960938 66.007812 158.8125 66.351562 L 157.40625 66.546875 C 156.632812 66.648438 155.925781 67.058594 155.453125 67.683594 C 154.976562 68.308594 154.769531 69.089844 154.875 69.871094 L 156.917969 84.945312 C 157.089844 86.203125 158.046875 87.210938 159.292969 87.449219 C 159.476562 87.480469 159.65625 87.503906 159.847656 87.5 C 159.972656 87.5 160.105469 87.492188 160.234375 87.472656 L 161.808594 87.265625 C 163.746094 87.007812 165.488281 85.957031 166.628906 84.371094 C 166.75 84.203125 166.863281 84.027344 166.976562 83.84375 C 167.8125 82.378906 168.140625 80.664062 167.886719 78.988281 Z M 167.886719 78.988281 "/>
<path style=" stroke:none;fill-rule:nonzero;fill:rgb(100%,100%,100%);fill-opacity:1;" d="M 156.5 66.820312 C 156.089844 67.019531 155.730469 67.316406 155.453125 67.683594 C 154.976562 68.308594 154.769531 69.089844 154.875 69.871094 L 156.917969 84.945312 C 157.089844 86.203125 158.046875 87.210938 159.292969 87.449219 Z M 156.5 66.820312 "/>
<path style=" stroke:none;fill-rule:nonzero;fill:rgb(24.705882%,23.921569%,33.72549%);fill-opacity:1;" d="M 167.886719 78.988281 L 167 72.445312 C 166.785156 70.792969 165.988281 69.269531 164.757812 68.148438 L 166.789062 83.144531 C 166.820312 83.386719 166.882812 83.621094 166.976562 83.84375 C 167.8125 82.378906 168.140625 80.664062 167.886719 78.988281 Z M 167.886719 78.988281 "/>
<path style=" stroke:none;fill-rule:nonzero;fill:rgb(24.705882%,23.921569%,33.72549%);fill-opacity:1;" d="M 161.589844 80.433594 C 161.355469 78.714844 160.667969 77.386719 160.054688 77.46875 C 159.441406 77.550781 159.132812 79.015625 159.363281 80.734375 C 159.597656 82.460938 160.28125 83.785156 160.898438 83.703125 C 161.511719 83.621094 161.820312 82.15625 161.589844 80.433594 Z M 161.589844 80.433594 "/>
<path style=" stroke:none;fill-rule:nonzero;fill:rgb(24.705882%,23.921569%,33.72549%);fill-opacity:1;" d="M 160.238281 72.347656 C 160.007812 70.625 159.320312 69.296875 158.703125 69.378906 C 158.09375 69.464844 157.785156 70.925781 158.015625 72.648438 C 158.25 74.367188 158.9375 75.699219 159.550781 75.613281 C 160.167969 75.53125 160.472656 74.066406 160.238281 72.347656 Z M 160.238281 72.347656 "/>
<path style=" stroke:none;fill-rule:nonzero;fill:rgb(24.705882%,23.921569%,33.72549%);fill-opacity:1;" d="M 168.765625 75.492188 C 168.53125 73.769531 167.847656 72.445312 167.234375 72.523438 C 166.621094 72.609375 166.308594 74.074219 166.542969 75.796875 C 166.78125 77.515625 167.464844 78.84375 168.078125 78.761719 C 168.691406 78.679688 169.003906 77.210938 168.765625 75.492188 Z M 168.765625 75.492188 "/>
<path style=" stroke:none;fill-rule:nonzero;fill:rgb(24.705882%,23.921569%,33.72549%);fill-opacity:1;" d="M 128.175781 49.613281 C 125.710938 49.609375 123.253906 49.847656 120.839844 50.332031 C 118.117188 50.875 115.296875 51.527344 112.519531 52.375 C 108.191406 52.164062 105.003906 51.042969 104.363281 49.308594 C 109.410156 46.390625 115.574219 44.507812 122.632812 43.59375 C 125.566406 43.199219 128.539062 43.109375 131.496094 43.324219 C 132.128906 43.691406 132.574219 44.316406 132.71875 45.035156 C 132.929688 46.601562 131.148438 48.265625 128.175781 49.613281 Z M 128.175781 49.613281 "/>
<path style=" stroke:none;fill-rule:nonzero;fill:rgb(42.352941%,38.823529%,100%);fill-opacity:1;" d="M 99.523438 93.335938 L 96.066406 78.953125 C 95.816406 77.894531 94.953125 77.085938 93.878906 76.910156 C 93.730469 76.886719 93.578125 76.871094 93.429688 76.871094 C 93.214844 76.871094 93.007812 76.898438 92.796875 76.949219 L 91.464844 77.273438 C 87.878906 78.140625 85.671875 81.753906 86.53125 85.34375 L 88.078125 91.800781 C 88.433594 93.316406 89.273438 94.675781 90.476562 95.671875 C 90.667969 95.828125 90.875 95.976562 91.085938 96.109375 C 92.605469 97.0625 94.445312 97.359375 96.1875 96.933594 L 97.523438 96.613281 C 97.875 96.527344 98.203125 96.375 98.496094 96.15625 C 99.375 95.511719 99.78125 94.402344 99.523438 93.335938 Z M 99.523438 93.335938 "/>
<path style=" stroke:none;fill-rule:nonzero;fill:rgb(24.705882%,23.921569%,33.72549%);fill-opacity:1;" d="M 92.636719 87.339844 C 92.230469 85.652344 91.414062 84.402344 90.808594 84.542969 C 90.207031 84.691406 90.042969 86.175781 90.453125 87.867188 C 90.859375 89.554688 91.671875 90.804688 92.277344 90.660156 C 92.882812 90.519531 93.039062 89.03125 92.636719 87.339844 Z M 92.636719 87.339844 "/>
<path style=" stroke:none;fill-rule:nonzero;fill:rgb(24.705882%,23.921569%,33.72549%);fill-opacity:1;" d="M 88.148438 88.6875 C 87.742188 87.003906 86.921875 85.75 86.320312 85.894531 C 85.71875 86.035156 85.558594 87.523438 85.964844 89.214844 C 86.371094 90.90625 87.1875 92.15625 87.792969 92.011719 C 88.394531 91.863281 88.550781 90.378906 88.148438 88.6875 Z M 88.148438 88.6875 "/>
<path style=" stroke:none;fill-rule:nonzero;fill:rgb(100%,100%,100%);fill-opacity:1;" d="M 99.742188 93.285156 L 96.285156 78.898438 C 96.011719 77.75 95.074219 76.878906 93.914062 76.691406 L 98.628906 96.335938 C 99.582031 95.636719 100.023438 94.433594 99.742188 93.285156 Z M 99.742188 93.285156 "/>
<path style=" stroke:none;fill-rule:nonzero;fill:rgb(24.705882%,23.921569%,33.72549%);fill-opacity:1;" d="M 87.3125 82.496094 C 87.214844 82.09375 87.039062 81.71875 86.785156 81.394531 C 86.304688 82.65625 86.210938 84.03125 86.53125 85.34375 L 88.078125 91.800781 C 88.433594 93.316406 89.273438 94.675781 90.476562 95.671875 Z M 87.3125 82.496094 "/>
</g>
</svg>
